<?xml version="1.0" encoding="utf-8"?>
<!-- Generator: Adobe Illustrator 22.1.0, SVG Export Plug-In . SVG Version: 6.00 Build 0)  -->
<svg version="1.1" id="Layer_1" xmlns="http://www.w3.org/2000/svg" xmlns:xlink="http://www.w3.org/1999/xlink" x="0px" y="0px"
	 viewBox="0 0 24.4 24" style="enable-background:new 0 0 24.4 24;" xml:space="preserve">
<style type="text/css">
	.st0{fill:none;}
</style>
<path class="st0" d="M0.4,24V0l24,0v24H0.4z"/>
<g>
	<path d="M4.8,1.5C4.5,1.6,4.5,1.8,4.5,2.1c0.2,0.8,0.4,1.6,0.6,2.3c1.4,3.8,4.8,6.2,8.7,6.2c1.5,0,2.9-0.3,4.2-0.9
		c0.3-0.1,0.4-0.3,0.3-0.6c-0.2-0.7-0.4-1.5-0.6-2.2c-0.6-1.8-1.7-3.4-3.3-4.5C11.5,0.2,8.2,0.1,4.8,1.5z M12.8,3.9
		c1.7,1,2.9,2.4,3.7,4.2c-2.8-2.7-6-4.5-9.8-5.4C8.9,2.3,11,2.7,12.8,3.9z"/>
	<path d="M21.1,11.8c-2.6,0.3-4.7,1.4-6.3,3.5c-1.7,2.3-2.1,4.9-1.5,7.7c0.1,0.3,0.2,0.4,0.5,0.4c0.9-0.1,1.7-0.1,2.6-0.2
		c1.9-0.3,3.5-1.2,4.8-2.5c1.7-1.8,2.5-3.9,2.6-6.4c-0.1-0.7-0.2-1.5-0.3-2.2c0-0.3-0.2-0.4-0.5-0.4C22.4,11.7,21.8,11.7,21.1,11.8z
		 M20.5,18.2c-1.3,1.9-3.1,3-5.4,3.6c3-2.1,5.3-4.8,6.9-8.2C22.3,14.3,21.5,16.9,20.5,18.2z"/>
	<path d="M0.9,10.3c-1,2.5-1.3,5.1-0.2,7.6c1.4,3.2,4,4.9,7.4,5.4c0.3,0,0.4-0.1,0.5-0.3c0.6-1.3,0.8-2.7,0.9-4
		c0-1.4-0.2-2.7-0.8-3.9c-1.5-3.1-4.1-4.6-7.4-5.1C1.2,10.1,0.9,10.2,0.9,10.3z M7.2,21.5c-1.8-0.8-3.2-2-4.2-3.8
		c-1-1.7-1.3-3.6-1.1-5.5C2.8,15.8,4.6,18.9,7.2,21.5z"/>
</g>
</svg>
