<?xml version="1.0" encoding="utf-8"?>
<!-- Generator: Adobe Illustrator 22.1.0, SVG Export Plug-In . SVG Version: 6.00 Build 0)  -->
<svg version="1.1" id="Layer_1" xmlns="http://www.w3.org/2000/svg" xmlns:xlink="http://www.w3.org/1999/xlink" x="0px" y="0px"
	 viewBox="0 0 24 24" style="enable-background:new 0 0 24 24;" xml:space="preserve">
<style type="text/css">
	.st0{fill:none;}
	.st1{fill:#438644;}
</style>
<path class="st0" d="M0,0h24v24H0V0z"/>
<path class="st1" d="M6,8V7c0-3.3,2.7-6,6-6s6,2.7,6,6v1h2c0.6,0,1,0.4,1,1v12c0,0.6-0.4,1-1,1H4c-0.6,0-1-0.4-1-1V9
	c0-0.6,0.4-1,1-1H6z M19,10H5v10h14V10z M11,15.7c-1-0.6-1.3-1.8-0.7-2.7c0.6-1,1.8-1.3,2.7-0.7c1,0.6,1.3,1.8,0.7,2.7
	c-0.2,0.3-0.4,0.6-0.7,0.7V18h-2V15.7z M8,8h8V7c0-2.2-1.8-4-4-4S8,4.8,8,7V8z"/>
</svg>
