<?xml version="1.0" encoding="utf-8"?>
<!-- Generator: Adobe Illustrator 22.1.0, SVG Export Plug-In . SVG Version: 6.00 Build 0)  -->
<svg version="1.1" id="Layer_1" xmlns="http://www.w3.org/2000/svg" xmlns:xlink="http://www.w3.org/1999/xlink" x="0px" y="0px"
	 viewBox="0 0 24 24" style="enable-background:new 0 0 24 24;" xml:space="preserve">
<style type="text/css">
	.st0{fill:none;}
	.st1{fill:#070606;}
</style>
<path class="st0" d="M0,0h24v24H0V0z"/>
<path class="st1" d="M8.7,4l2.6-2.6c0.4-0.4,1-0.4,1.4,0L15.3,4H19c0.6,0,1,0.4,1,1v3.7l2.6,2.6c0.4,0.4,0.4,1,0,1.4L20,15.3V19
	c0,0.6-0.4,1-1,1h-3.7l-2.6,2.6c-0.4,0.4-1,0.4-1.4,0L8.7,20H5c-0.6,0-1-0.4-1-1v-3.7l-2.6-2.6c-0.4-0.4-0.4-1,0-1.4L4,8.7V5
	c0-0.6,0.4-1,1-1H8.7z M6,6v3.5L3.5,12L6,14.5V18h3.5l2.5,2.5l2.5-2.5H18v-3.5l2.5-2.5L18,9.5V6h-3.5L12,3.5L9.5,6H6z M12,16
	c-2.2,0-4-1.8-4-4s1.8-4,4-4s4,1.8,4,4S14.2,16,12,16z M12,14c1.1,0,2-0.9,2-2s-0.9-2-2-2s-2,0.9-2,2S10.9,14,12,14z"/>
</svg>
