<?xml version="1.0" encoding="utf-8"?>
<!-- Generator: Adobe Illustrator 22.1.0, SVG Export Plug-In . SVG Version: 6.00 Build 0)  -->
<svg version="1.1" id="Layer_1" xmlns="http://www.w3.org/2000/svg" xmlns:xlink="http://www.w3.org/1999/xlink" x="0px" y="0px"
	 viewBox="0 0 24 24" style="enable-background:new 0 0 24 24;" xml:space="preserve">
<style type="text/css">
	.st0{fill:none;}
	.st1{fill:#070606;}
</style>
<path class="st0" d="M0,0h24v24H0V0z"/>
<path class="st1" d="M6,2c2.7,0,5,1.5,6.2,3.7C13.4,4.1,15.3,3,17.5,3H21v2.5c0,3.6-2.9,6.5-6.5,6.5H13v1h5v7c0,1.1-0.9,2-2,2H8
	c-1.1,0-2-0.9-2-2v-7h5v-2H9c-3.9,0-7-3.1-7-7V2H6z M16,15H8v5h8V15z M19,5h-1.5C15,5,13,7,13,9.5V10h1.5C17,10,19,8,19,5.5V5z M6,4
	H4c0,2.8,2.2,5,5,5h2C11,6.2,8.8,4,6,4z"/>
</svg>
