<?xml version="1.0" encoding="utf-8"?>
<!-- Generator: Adobe Illustrator 22.1.0, SVG Export Plug-In . SVG Version: 6.00 Build 0)  -->
<svg version="1.1" id="Layer_1" xmlns="http://www.w3.org/2000/svg" xmlns:xlink="http://www.w3.org/1999/xlink" x="0px" y="0px"
	 viewBox="0 0 24 24" style="enable-background:new 0 0 24 24;" xml:space="preserve">
<style type="text/css">
	.st0{fill:none;}
	.st1{fill:#070606;}
</style>
<path class="st0" d="M0,0h24v24H0V0z"/>
<path class="st1" d="M21,3v2c0,9.6-5.4,14-12,14H5.2C5.1,19.9,5,20.9,5,22H3c0-1.4,0.1-2.6,0.3-3.7C3.1,17,3,15.2,3,13
	C3,7.5,7.5,3,13,3C15,3,17,4,21,3z M13,5c-4.4,0-8,3.6-8,8c0,0.4,0,0.7,0,1c1.3-2,3.1-3.5,5.5-4.9l1,1.7c-2.9,1.6-4.7,3.5-5.7,6.1H9
	c6,0,9.9-4,10-11.6c-1.4,0.1-2.6,0-4.2-0.2C13.6,5,13.4,5,13,5z"/>
</svg>
