<?xml version="1.0" encoding="utf-8"?>
<!-- Generator: Adobe Illustrator 22.1.0, SVG Export Plug-In . SVG Version: 6.00 Build 0)  -->
<svg version="1.1" id="Layer_1" xmlns="http://www.w3.org/2000/svg" xmlns:xlink="http://www.w3.org/1999/xlink" x="0px" y="0px"
	 viewBox="0 0 24 24" style="enable-background:new 0 0 24 24;" xml:space="preserve">
<style type="text/css">
	.st0{fill:none;}
	.st1{fill:#070606;}
</style>
<path class="st0" d="M0,0h24v24H0V0z"/>
<path class="st1" d="M12,2c5.5,0,10,4.5,10,10s-4.5,10-10,10S2,17.5,2,12S6.5,2,12,2z M12,4c-4.4,0-8,3.6-8,8s3.6,8,8,8s8-3.6,8-8
	S16.4,4,12,4z M12,5c1,0,2,0.2,2.9,0.6l-1.6,1.6C12.9,7.1,12.4,7,12,7c-2.8,0-5,2.2-5,5c0,1.4,0.6,2.6,1.5,3.5L7.1,17l-0.2-0.2
	C5.7,15.5,5,13.9,5,12C5,8.1,8.1,5,12,5z M18.4,9.1C18.8,10,19,11,19,12c0,1.9-0.8,3.7-2,5l-1.4-1.4c0.9-0.9,1.5-2.2,1.5-3.5
	c0-0.4-0.1-0.9-0.2-1.3L18.4,9.1z M16.2,6.3l1.4,1.4l-3.7,3.7c0,0.2,0.1,0.3,0.1,0.5c0,1.1-0.9,2-2,2s-2-0.9-2-2s0.9-2,2-2
	c0.2,0,0.4,0,0.5,0.1L16.2,6.3L16.2,6.3z"/>
</svg>
