<?xml version="1.0" encoding="utf-8"?>
<!-- Generator: Adobe Illustrator 22.1.0, SVG Export Plug-In . SVG Version: 6.00 Build 0)  -->
<svg version="1.1" id="Layer_1" xmlns="http://www.w3.org/2000/svg" xmlns:xlink="http://www.w3.org/1999/xlink" x="0px" y="0px"
	 viewBox="0 0 24 24" style="enable-background:new 0 0 24 24;" xml:space="preserve">
<style type="text/css">
	.st0{clip-path:url(#SVGID_2_);fill:#438644;}
</style>
<g>
	<defs>
		<rect id="SVGID_1_" width="24" height="24"/>
	</defs>
	<clipPath id="SVGID_2_">
		<use xlink:href="#SVGID_1_"  style="overflow:visible;"/>
	</clipPath>
	<path class="st0" d="M4,22c0-4.4,3.6-8,8-8s8,3.6,8,8h-2c0-3.3-2.7-6-6-6s-6,2.7-6,6H4z M12,13c-3.3,0-6-2.7-6-6s2.7-6,6-6
		s6,2.7,6,6S15.3,13,12,13 M12,11c2.2,0,4-1.8,4-4s-1.8-4-4-4S8,4.8,8,7S9.8,11,12,11"/>
</g>
</svg>
