<?xml version="1.0" encoding="utf-8"?>
<!-- Generator: Adobe Illustrator 22.1.0, SVG Export Plug-In . SVG Version: 6.00 Build 0)  -->
<svg version="1.1" id="Layer_1" xmlns="http://www.w3.org/2000/svg" xmlns:xlink="http://www.w3.org/1999/xlink" x="0px" y="0px"
	 viewBox="0 0 24 24" style="enable-background:new 0 0 24 24;" xml:space="preserve">
<style type="text/css">
	.st0{fill:none;}
	.st1{fill:#070606;}
</style>
<path class="st0" d="M0,0h24v24H0V0z"/>
<path class="st1" d="M12,11c2.8,0,5,2.2,5,5v6h-2v-6c0-1.6-1.2-2.9-2.8-3L12,13c-1.6,0-2.9,1.2-3,2.8L9,16v6H7v-6
	C7,13.2,9.2,11,12,11z M5.5,14c0.3,0,0.6,0,0.8,0.1c-0.2,0.5-0.3,1-0.3,1.6L6,16v0.1C5.9,16,5.8,16,5.6,16l-0.1,0
	c-0.8,0-1.4,0.6-1.5,1.4l0,0.1V22H2v-4.5C2,15.6,3.6,14,5.5,14z M18.5,14c1.9,0,3.5,1.6,3.5,3.5V22h-2v-4.5c0-0.8-0.6-1.4-1.4-1.5
	l-0.1,0c-0.2,0-0.3,0-0.5,0.1V16c0-0.7-0.1-1.3-0.3-1.9C18,14,18.2,14,18.5,14z M5.5,8C6.9,8,8,9.1,8,10.5S6.9,13,5.5,13
	S3,11.9,3,10.5S4.1,8,5.5,8z M18.5,8c1.4,0,2.5,1.1,2.5,2.5S19.9,13,18.5,13S16,11.9,16,10.5S17.1,8,18.5,8z M5.5,10
	C5.2,10,5,10.2,5,10.5S5.2,11,5.5,11S6,10.8,6,10.5S5.8,10,5.5,10z M18.5,10c-0.3,0-0.5,0.2-0.5,0.5s0.2,0.5,0.5,0.5
	s0.5-0.2,0.5-0.5S18.8,10,18.5,10z M12,2c2.2,0,4,1.8,4,4s-1.8,4-4,4S8,8.2,8,6S9.8,2,12,2z M12,4c-1.1,0-2,0.9-2,2s0.9,2,2,2
	s2-0.9,2-2S13.1,4,12,4z"/>
</svg>
