<?xml version="1.0" encoding="utf-8"?>
<!-- Generator: Adobe Illustrator 22.1.0, SVG Export Plug-In . SVG Version: 6.00 Build 0)  -->
<svg version="1.1" id="Layer_1" xmlns="http://www.w3.org/2000/svg" xmlns:xlink="http://www.w3.org/1999/xlink" x="0px" y="0px"
	 viewBox="0 0 24 24" style="enable-background:new 0 0 24 24;" xml:space="preserve">
<style type="text/css">
	.st0{fill:none;}
	.st1{fill:#070606;}
</style>
<path class="st0" d="M0,0h24v24H0V0z"/>
<path class="st1" d="M10.8,21.5v-3.3H4.9v-2.3h10.4c0.7,0,1.3-0.6,1.3-1.3c0-0.7-0.6-1.3-1.3-1.3H8.7c-2,0-3.6-1.6-3.6-3.6
	s1.6-3.6,3.6-3.6h2.2V2.5h2.3v3.3H19v2.3H8.7c-0.7,0-1.3,0.6-1.3,1.3s0.6,1.3,1.3,1.3h6.6c2,0,3.6,1.6,3.6,3.6c0,2-1.6,3.6-3.6,3.6
	h-2.2v3.3H10.8z"/>
</svg>
